# xmcd
#
# Track frame offsets: 
#        150
#        17930
#        37072
#        54537
#        70217
#        93637
#        113240
#        131232
#        146842
#        172197
#
# Disc length: 2429 seconds
#
# Revision: 10
# Processed by: cddbd v1.5.2PL0 Copyright (c) Steve Scherf et al.
# Submitted via: ExactAudioCopy v1.0b1
#
DISCID=9e097b0a
DTITLE=Jimmie Vaughan - Out There
DYEAR=1998
DGENRE=Blues
TTITLE0=Like a King
TTITLE1=Lost in You
TTITLE2=Out There
TTITLE3=Can't Say No
TTITLE4=The Ironic Twist
TTITLE5=Positively Meant To Be
TTITLE6=Motor Head Baby
TTITLE7=Kinky Woman
TTITLE8=Astral Projection Blues
TTITLE9=Little Son, Big Sun
EXTD=YEAR: 1998
EXTT0=
EXTT1=
EXTT2=
EXTT3=
EXTT4=
EXTT5=
EXTT6=
EXTT7=
EXTT8=
EXTT9=
PLAYORDER=
